<svg width="900" height="854" viewBox="0 0 900 854" fill="none" xmlns="http://www.w3.org/2000/svg">
<rect width="900" height="854" fill="#1E1E1E"/>
<mask id="mask0_0_1" style="mask-type:alpha" maskUnits="userSpaceOnUse" x="0" y="520" width="900" height="334">
<rect y="520" width="900" height="333.333" fill="#A45A52"/>
</mask>
<g mask="url(#mask0_0_1)">
<path d="M83.3333 520C83.3333 473.976 46.0237 436.667 1.90735e-06 436.667C-46.0237 436.667 -83.3333 473.976 -83.3333 520V603.333H83.3333V520Z" fill="#5E3215"/>
<path d="M66.6667 520C66.6667 483.181 36.819 453.333 1.90735e-06 453.333C-36.819 453.333 -66.6667 483.181 -66.6667 520V603.333H66.6667V520Z" fill="#BA460E"/>
<path d="M50 520V603.333H-50V520C-50 492.386 -27.6142 470 1.90735e-06 470C27.6142 470 50 492.386 50 520Z" fill="#E07A11"/>
<path d="M33.3333 520V603.333H-33.3333V520C-33.3333 501.591 -18.4095 486.667 1.90735e-06 486.667C18.4095 486.667 33.3333 501.591 33.3333 520Z" fill="#F0D4A5"/>
<path d="M16.6667 520V603.333H-16.6667V520C-16.6667 510.795 -9.20474 503.333 1.90735e-06 503.333C9.20475 503.333 16.6667 510.795 16.6667 520Z" fill="white"/>
<path d="M233.333 520C233.333 473.976 196.024 436.667 150 436.667C103.976 436.667 66.6667 473.976 66.6667 520V603.333H233.333V520Z" fill="#5E3215"/>
<path d="M216.667 520C216.667 483.181 186.819 453.333 150 453.333C113.181 453.333 83.3333 483.181 83.3333 520V603.333H216.667V520Z" fill="#BA460E"/>
<path d="M200 520V603.333H100V520C100 492.386 122.386 470 150 470C177.614 470 200 492.386 200 520Z" fill="#E07A11"/>
<path d="M183.333 520V603.333H116.667V520C116.667 501.591 131.591 486.667 150 486.667C168.409 486.667 183.333 501.591 183.333 520Z" fill="#F0D4A5"/>
<path d="M166.667 520V603.333H133.333V520C133.333 510.795 140.795 503.333 150 503.333C159.205 503.333 166.667 510.795 166.667 520Z" fill="white"/>
<path d="M383.333 520C383.333 473.976 346.024 436.667 300 436.667C253.976 436.667 216.667 473.976 216.667 520V603.333H383.333V520Z" fill="#5E3215"/>
<path d="M366.667 520C366.667 483.181 336.819 453.333 300 453.333C263.181 453.333 233.333 483.181 233.333 520V603.333H366.667V520Z" fill="#BA460E"/>
<path d="M350 520V603.333H250V520C250 492.386 272.386 470 300 470C327.614 470 350 492.386 350 520Z" fill="#E07A11"/>
<path d="M333.333 520V603.333H266.667V520C266.667 501.591 281.591 486.667 300 486.667C318.409 486.667 333.333 501.591 333.333 520Z" fill="#F0D4A5"/>
<path d="M316.667 520V603.333H283.333V520C283.333 510.795 290.795 503.333 300 503.333C309.205 503.333 316.667 510.795 316.667 520Z" fill="white"/>
<path d="M533.333 520C533.333 473.976 496.024 436.667 450 436.667C403.976 436.667 366.667 473.976 366.667 520V603.333H533.333V520Z" fill="#5E3215"/>
<path d="M516.667 520C516.667 483.181 486.819 453.333 450 453.333C413.181 453.333 383.333 483.181 383.333 520V603.333H516.667V520Z" fill="#BA460E"/>
<path d="M500 520V603.333H400V520C400 492.386 422.386 470 450 470C477.614 470 500 492.386 500 520Z" fill="#E07A11"/>
<path d="M483.333 520V603.333H416.667V520C416.667 501.591 431.59 486.667 450 486.667C468.409 486.667 483.333 501.591 483.333 520Z" fill="#F0D4A5"/>
<path d="M466.667 520V603.333H433.333V520C433.333 510.795 440.795 503.333 450 503.333C459.205 503.333 466.667 510.795 466.667 520Z" fill="white"/>
<path d="M683.333 520C683.333 473.976 646.024 436.667 600 436.667C553.976 436.667 516.667 473.976 516.667 520V603.333H683.333V520Z" fill="#5E3215"/>
<path d="M666.667 520C666.667 483.181 636.819 453.333 600 453.333C563.181 453.333 533.333 483.181 533.333 520V603.333H666.667V520Z" fill="#BA460E"/>
<path d="M650 520V603.333H550V520C550 492.386 572.386 470 600 470C627.614 470 650 492.386 650 520Z" fill="#E07A11"/>
<path d="M633.333 520V603.333H566.667V520C566.667 501.591 581.59 486.667 600 486.667C618.409 486.667 633.333 501.591 633.333 520Z" fill="#F0D4A5"/>
<path d="M616.667 520V603.333H583.333V520C583.333 510.795 590.795 503.333 600 503.333C609.205 503.333 616.667 510.795 616.667 520Z" fill="white"/>
<path d="M833.333 520C833.333 473.976 796.024 436.667 750 436.667C703.976 436.667 666.667 473.976 666.667 520V603.333H833.333V520Z" fill="#5E3215"/>
<path d="M816.667 520C816.667 483.181 786.819 453.333 750 453.333C713.181 453.333 683.333 483.181 683.333 520V603.333H816.667V520Z" fill="#BA460E"/>
<path d="M800 520V603.333H700V520C700 492.386 722.386 470 750 470C777.614 470 800 492.386 800 520Z" fill="#E07A11"/>
<path d="M783.333 520V603.333H716.667V520C716.667 501.591 731.59 486.667 750 486.667C768.409 486.667 783.333 501.591 783.333 520Z" fill="#F0D4A5"/>
<path d="M766.667 520V603.333H733.333V520C733.333 510.795 740.795 503.333 750 503.333C759.205 503.333 766.667 510.795 766.667 520Z" fill="white"/>
<path d="M983.333 520C983.333 473.976 946.024 436.667 900 436.667C853.976 436.667 816.667 473.976 816.667 520V603.333H983.333V520Z" fill="#5E3215"/>
<path d="M966.667 520C966.667 483.181 936.819 453.333 900 453.333C863.181 453.333 833.333 483.181 833.333 520V603.333H966.667V520Z" fill="#BA460E"/>
<path d="M950 520V603.333H850V520C850 492.386 872.386 470 900 470C927.614 470 950 492.386 950 520Z" fill="#E07A11"/>
<path d="M933.333 520V603.333H866.667V520C866.667 501.591 881.59 486.667 900 486.667C918.409 486.667 933.333 501.591 933.333 520Z" fill="#F0D4A5"/>
<path d="M916.667 520V603.333H883.333V520C883.333 510.795 890.795 503.333 900 503.333C909.205 503.333 916.667 510.795 916.667 520Z" fill="white"/>
<path d="M158.333 603.333C158.333 557.31 121.024 520 75 520C28.9763 520 -8.33333 557.31 -8.33333 603.333V686.667H158.333V603.333Z" fill="#5E3215"/>
<path d="M141.667 603.333C141.667 566.514 111.819 536.667 75 536.667C38.181 536.667 8.33333 566.514 8.33333 603.333V686.667H141.667V603.333Z" fill="#BA460E"/>
<path d="M125 603.333V686.667H25V603.333C25 575.719 47.3858 553.333 75 553.333C102.614 553.333 125 575.719 125 603.333Z" fill="#E07A11"/>
<path d="M108.333 603.333V686.667H41.6667V603.333C41.6667 584.924 56.5905 570 75 570C93.4095 570 108.333 584.924 108.333 603.333Z" fill="#F0D4A5"/>
<path d="M91.6667 603.333V686.667H58.3333V603.333C58.3333 594.129 65.7953 586.667 75 586.667C84.2048 586.667 91.6667 594.129 91.6667 603.333Z" fill="white"/>
<path d="M308.333 603.333C308.333 557.31 271.024 520 225 520C178.976 520 141.667 557.31 141.667 603.333V686.667H308.333V603.333Z" fill="#5E3215"/>
<path d="M291.667 603.333C291.667 566.514 261.819 536.667 225 536.667C188.181 536.667 158.333 566.514 158.333 603.333V686.667H291.667V603.333Z" fill="#BA460E"/>
<path d="M275 603.333V686.667H175V603.333C175 575.719 197.386 553.333 225 553.333C252.614 553.333 275 575.719 275 603.333Z" fill="#E07A11"/>
<path d="M258.333 603.333V686.667H191.667V603.333C191.667 584.924 206.591 570 225 570C243.409 570 258.333 584.924 258.333 603.333Z" fill="#F0D4A5"/>
<path d="M241.667 603.333V686.667H208.333V603.333C208.333 594.129 215.795 586.667 225 586.667C234.205 586.667 241.667 594.129 241.667 603.333Z" fill="white"/>
<path d="M458.333 603.333C458.333 557.31 421.024 520 375 520C328.976 520 291.667 557.31 291.667 603.333V686.667H458.333V603.333Z" fill="#5E3215"/>
<path d="M441.667 603.333C441.667 566.514 411.819 536.667 375 536.667C338.181 536.667 308.333 566.514 308.333 603.333V686.667H441.667V603.333Z" fill="#BA460E"/>
<path d="M425 603.333V686.667H325V603.333C325 575.719 347.386 553.333 375 553.333C402.614 553.333 425 575.719 425 603.333Z" fill="#E07A11"/>
<path d="M408.333 603.333V686.667H341.667V603.333C341.667 584.924 356.59 570 375 570C393.409 570 408.333 584.924 408.333 603.333Z" fill="#F0D4A5"/>
<path d="M391.667 603.333V686.667H358.333V603.333C358.333 594.129 365.795 586.667 375 586.667C384.205 586.667 391.667 594.129 391.667 603.333Z" fill="white"/>
<path d="M608.333 603.333C608.333 557.31 571.024 520 525 520C478.976 520 441.667 557.31 441.667 603.333V686.667H608.333V603.333Z" fill="#5E3215"/>
<path d="M591.667 603.333C591.667 566.514 561.819 536.667 525 536.667C488.181 536.667 458.333 566.514 458.333 603.333V686.667H591.667V603.333Z" fill="#BA460E"/>
<path d="M575 603.333V686.667H475V603.333C475 575.719 497.386 553.333 525 553.333C552.614 553.333 575 575.719 575 603.333Z" fill="#E07A11"/>
<path d="M558.333 603.333V686.667H491.667V603.333C491.667 584.924 506.59 570 525 570C543.409 570 558.333 584.924 558.333 603.333Z" fill="#F0D4A5"/>
<path d="M541.667 603.333V686.667H508.333V603.333C508.333 594.129 515.795 586.667 525 586.667C534.205 586.667 541.667 594.129 541.667 603.333Z" fill="white"/>
<path d="M758.333 603.333C758.333 557.31 721.024 520 675 520C628.976 520 591.667 557.31 591.667 603.333V686.667H758.333V603.333Z" fill="#5E3215"/>
<path d="M741.667 603.333C741.667 566.514 711.819 536.667 675 536.667C638.181 536.667 608.333 566.514 608.333 603.333V686.667H741.667V603.333Z" fill="#BA460E"/>
<path d="M725 603.333V686.667H625V603.333C625 575.719 647.386 553.333 675 553.333C702.614 553.333 725 575.719 725 603.333Z" fill="#E07A11"/>
<path d="M708.333 603.333V686.667H641.667V603.333C641.667 584.924 656.59 570 675 570C693.409 570 708.333 584.924 708.333 603.333Z" fill="#F0D4A5"/>
<path d="M691.667 603.333V686.667H658.333V603.333C658.333 594.129 665.795 586.667 675 586.667C684.205 586.667 691.667 594.129 691.667 603.333Z" fill="white"/>
<path d="M908.333 603.333C908.333 557.31 871.024 520 825 520C778.976 520 741.667 557.31 741.667 603.333V686.667H908.333V603.333Z" fill="#5E3215"/>
<path d="M891.667 603.333C891.667 566.514 861.819 536.667 825 536.667C788.181 536.667 758.333 566.514 758.333 603.333V686.667H891.667V603.333Z" fill="#BA460E"/>
<path d="M875 603.333V686.667H775V603.333C775 575.719 797.386 553.333 825 553.333C852.614 553.333 875 575.719 875 603.333Z" fill="#E07A11"/>
<path d="M858.333 603.333V686.667H791.667V603.333C791.667 584.924 806.59 570 825 570C843.409 570 858.333 584.924 858.333 603.333Z" fill="#F0D4A5"/>
<path d="M841.667 603.333V686.667H808.333V603.333C808.333 594.129 815.795 586.667 825 586.667C834.205 586.667 841.667 594.129 841.667 603.333Z" fill="white"/>
<path d="M83.3333 686.667C83.3333 640.643 46.0237 603.333 1.90735e-06 603.333C-46.0237 603.333 -83.3333 640.643 -83.3333 686.667V770H83.3333V686.667Z" fill="#5E3215"/>
<path d="M66.6667 686.667C66.6667 649.848 36.819 620 1.90735e-06 620C-36.819 620 -66.6667 649.848 -66.6667 686.667V770H66.6667V686.667Z" fill="#BA460E"/>
<path d="M50 686.667V770H-50V686.667C-50 659.052 -27.6142 636.667 1.90735e-06 636.667C27.6142 636.667 50 659.052 50 686.667Z" fill="#E07A11"/>
<path d="M33.3333 686.667V770H-33.3333V686.667C-33.3333 668.257 -18.4095 653.333 1.90735e-06 653.333C18.4095 653.333 33.3333 668.257 33.3333 686.667Z" fill="#F0D4A5"/>
<path d="M16.6667 686.667V770H-16.6667V686.667C-16.6667 677.462 -9.20474 670 1.90735e-06 670C9.20475 670 16.6667 677.462 16.6667 686.667Z" fill="white"/>
<path d="M233.333 686.667C233.333 640.643 196.024 603.333 150 603.333C103.976 603.333 66.6667 640.643 66.6667 686.667V770H233.333V686.667Z" fill="#5E3215"/>
<path d="M216.667 686.667C216.667 649.848 186.819 620 150 620C113.181 620 83.3333 649.848 83.3333 686.667V770H216.667V686.667Z" fill="#BA460E"/>
<path d="M200 686.667V770H100V686.667C100 659.052 122.386 636.667 150 636.667C177.614 636.667 200 659.052 200 686.667Z" fill="#E07A11"/>
<path d="M183.333 686.667V770H116.667V686.667C116.667 668.257 131.591 653.333 150 653.333C168.409 653.333 183.333 668.257 183.333 686.667Z" fill="#F0D4A5"/>
<path d="M166.667 686.667V770H133.333V686.667C133.333 677.462 140.795 670 150 670C159.205 670 166.667 677.462 166.667 686.667Z" fill="white"/>
<path d="M383.333 686.667C383.333 640.643 346.024 603.333 300 603.333C253.976 603.333 216.667 640.643 216.667 686.667V770H383.333V686.667Z" fill="#5E3215"/>
<path d="M366.667 686.667C366.667 649.848 336.819 620 300 620C263.181 620 233.333 649.848 233.333 686.667V770H366.667V686.667Z" fill="#BA460E"/>
<path d="M350 686.667V770H250V686.667C250 659.052 272.386 636.667 300 636.667C327.614 636.667 350 659.052 350 686.667Z" fill="#E07A11"/>
<path d="M333.333 686.667V770H266.667V686.667C266.667 668.257 281.591 653.333 300 653.333C318.409 653.333 333.333 668.257 333.333 686.667Z" fill="#F0D4A5"/>
<path d="M316.667 686.667V770H283.333V686.667C283.333 677.462 290.795 670 300 670C309.205 670 316.667 677.462 316.667 686.667Z" fill="white"/>
<path d="M533.333 686.667C533.333 640.643 496.024 603.333 450 603.333C403.976 603.333 366.667 640.643 366.667 686.667V770H533.333V686.667Z" fill="#5E3215"/>
<path d="M516.667 686.667C516.667 649.848 486.819 620 450 620C413.181 620 383.333 649.848 383.333 686.667V770H516.667V686.667Z" fill="#BA460E"/>
<path d="M500 686.667V770H400V686.667C400 659.052 422.386 636.667 450 636.667C477.614 636.667 500 659.052 500 686.667Z" fill="#E07A11"/>
<path d="M483.333 686.667V770H416.667V686.667C416.667 668.257 431.59 653.333 450 653.333C468.409 653.333 483.333 668.257 483.333 686.667Z" fill="#F0D4A5"/>
<path d="M466.667 686.667V770H433.333V686.667C433.333 677.462 440.795 670 450 670C459.205 670 466.667 677.462 466.667 686.667Z" fill="white"/>
<path d="M683.333 686.667C683.333 640.643 646.024 603.333 600 603.333C553.976 603.333 516.667 640.643 516.667 686.667V770H683.333V686.667Z" fill="#5E3215"/>
<path d="M666.667 686.667C666.667 649.848 636.819 620 600 620C563.181 620 533.333 649.848 533.333 686.667V770H666.667V686.667Z" fill="#BA460E"/>
<path d="M650 686.667V770H550V686.667C550 659.052 572.386 636.667 600 636.667C627.614 636.667 650 659.052 650 686.667Z" fill="#E07A11"/>
<path d="M633.333 686.667V770H566.667V686.667C566.667 668.257 581.59 653.333 600 653.333C618.409 653.333 633.333 668.257 633.333 686.667Z" fill="#F0D4A5"/>
<path d="M616.667 686.667V770H583.333V686.667C583.333 677.462 590.795 670 600 670C609.205 670 616.667 677.462 616.667 686.667Z" fill="white"/>
<path d="M833.333 686.667C833.333 640.643 796.024 603.333 750 603.333C703.976 603.333 666.667 640.643 666.667 686.667V770H833.333V686.667Z" fill="#5E3215"/>
<path d="M816.667 686.667C816.667 649.848 786.819 620 750 620C713.181 620 683.333 649.848 683.333 686.667V770H816.667V686.667Z" fill="#BA460E"/>
<path d="M800 686.667V770H700V686.667C700 659.052 722.386 636.667 750 636.667C777.614 636.667 800 659.052 800 686.667Z" fill="#E07A11"/>
<path d="M783.333 686.667V770H716.667V686.667C716.667 668.257 731.59 653.333 750 653.333C768.409 653.333 783.333 668.257 783.333 686.667Z" fill="#F0D4A5"/>
<path d="M766.667 686.667V770H733.333V686.667C733.333 677.462 740.795 670 750 670C759.205 670 766.667 677.462 766.667 686.667Z" fill="white"/>
<path d="M983.333 686.667C983.333 640.643 946.024 603.333 900 603.333C853.976 603.333 816.667 640.643 816.667 686.667V770H983.333V686.667Z" fill="#5E3215"/>
<path d="M966.667 686.667C966.667 649.848 936.819 620 900 620C863.181 620 833.333 649.848 833.333 686.667V770H966.667V686.667Z" fill="#BA460E"/>
<path d="M950 686.667V770H850V686.667C850 659.052 872.386 636.667 900 636.667C927.614 636.667 950 659.052 950 686.667Z" fill="#E07A11"/>
<path d="M933.333 686.667V770H866.667V686.667C866.667 668.257 881.59 653.333 900 653.333C918.409 653.333 933.333 668.257 933.333 686.667Z" fill="#F0D4A5"/>
<path d="M916.667 686.667V770H883.333V686.667C883.333 677.462 890.795 670 900 670C909.205 670 916.667 677.462 916.667 686.667Z" fill="white"/>
<path d="M158.333 770C158.333 723.976 121.024 686.667 75 686.667C28.9763 686.667 -8.33333 723.976 -8.33333 770V853.333H158.333V770Z" fill="#5E3215"/>
<path d="M141.667 770C141.667 733.181 111.819 703.333 75 703.333C38.181 703.333 8.33333 733.181 8.33333 770V853.333H141.667V770Z" fill="#BA460E"/>
<path d="M125 770V853.333H25V770C25 742.386 47.3858 720 75 720C102.614 720 125 742.386 125 770Z" fill="#E07A11"/>
<path d="M108.333 770V853.333H41.6667V770C41.6667 751.591 56.5905 736.667 75 736.667C93.4095 736.667 108.333 751.591 108.333 770Z" fill="#F0D4A5"/>
<path d="M91.6667 770V853.333H58.3333V770C58.3333 760.795 65.7953 753.333 75 753.333C84.2048 753.333 91.6667 760.795 91.6667 770Z" fill="white"/>
<path d="M308.333 770C308.333 723.976 271.024 686.667 225 686.667C178.976 686.667 141.667 723.976 141.667 770V853.333H308.333V770Z" fill="#5E3215"/>
<path d="M291.667 770C291.667 733.181 261.819 703.333 225 703.333C188.181 703.333 158.333 733.181 158.333 770V853.333H291.667V770Z" fill="#BA460E"/>
<path d="M275 770V853.333H175V770C175 742.386 197.386 720 225 720C252.614 720 275 742.386 275 770Z" fill="#E07A11"/>
<path d="M258.333 770V853.333H191.667V770C191.667 751.591 206.591 736.667 225 736.667C243.409 736.667 258.333 751.591 258.333 770Z" fill="#F0D4A5"/>
<path d="M241.667 770V853.333H208.333V770C208.333 760.795 215.795 753.333 225 753.333C234.205 753.333 241.667 760.795 241.667 770Z" fill="white"/>
<path d="M458.333 770C458.333 723.976 421.024 686.667 375 686.667C328.976 686.667 291.667 723.976 291.667 770V853.333H458.333V770Z" fill="#5E3215"/>
<path d="M441.667 770C441.667 733.181 411.819 703.333 375 703.333C338.181 703.333 308.333 733.181 308.333 770V853.333H441.667V770Z" fill="#BA460E"/>
<path d="M425 770V853.333H325V770C325 742.386 347.386 720 375 720C402.614 720 425 742.386 425 770Z" fill="#E07A11"/>
<path d="M408.333 770V853.333H341.667V770C341.667 751.591 356.59 736.667 375 736.667C393.409 736.667 408.333 751.591 408.333 770Z" fill="#F0D4A5"/>
<path d="M391.667 770V853.333H358.333V770C358.333 760.795 365.795 753.333 375 753.333C384.205 753.333 391.667 760.795 391.667 770Z" fill="white"/>
<path d="M608.333 770C608.333 723.976 571.024 686.667 525 686.667C478.976 686.667 441.667 723.976 441.667 770V853.333H608.333V770Z" fill="#5E3215"/>
<path d="M591.667 770C591.667 733.181 561.819 703.333 525 703.333C488.181 703.333 458.333 733.181 458.333 770V853.333H591.667V770Z" fill="#BA460E"/>
<path d="M575 770V853.333H475V770C475 742.386 497.386 720 525 720C552.614 720 575 742.386 575 770Z" fill="#E07A11"/>
<path d="M558.333 770V853.333H491.667V770C491.667 751.591 506.59 736.667 525 736.667C543.409 736.667 558.333 751.591 558.333 770Z" fill="#F0D4A5"/>
<path d="M541.667 770V853.333H508.333V770C508.333 760.795 515.795 753.333 525 753.333C534.205 753.333 541.667 760.795 541.667 770Z" fill="white"/>
<path d="M758.333 770C758.333 723.976 721.024 686.667 675 686.667C628.976 686.667 591.667 723.976 591.667 770V853.333H758.333V770Z" fill="#5E3215"/>
<path d="M741.667 770C741.667 733.181 711.819 703.333 675 703.333C638.181 703.333 608.333 733.181 608.333 770V853.333H741.667V770Z" fill="#BA460E"/>
<path d="M725 770V853.333H625V770C625 742.386 647.386 720 675 720C702.614 720 725 742.386 725 770Z" fill="#E07A11"/>
<path d="M708.333 770V853.333H641.667V770C641.667 751.591 656.59 736.667 675 736.667C693.409 736.667 708.333 751.591 708.333 770Z" fill="#F0D4A5"/>
<path d="M691.667 770V853.333H658.333V770C658.333 760.795 665.795 753.333 675 753.333C684.205 753.333 691.667 760.795 691.667 770Z" fill="white"/>
<path d="M908.333 770C908.333 723.976 871.024 686.667 825 686.667C778.976 686.667 741.667 723.976 741.667 770V853.333H908.333V770Z" fill="#5E3215"/>
<path d="M891.667 770C891.667 733.181 861.819 703.333 825 703.333C788.181 703.333 758.333 733.181 758.333 770V853.333H891.667V770Z" fill="#BA460E"/>
<path d="M875 770V853.333H775V770C775 742.386 797.386 720 825 720C852.614 720 875 742.386 875 770Z" fill="#E07A11"/>
<path d="M858.333 770V853.333H791.667V770C791.667 751.591 806.59 736.667 825 736.667C843.409 736.667 858.333 751.591 858.333 770Z" fill="#F0D4A5"/>
<path d="M841.667 770V853.333H808.333V770C808.333 760.795 815.795 753.333 825 753.333C834.205 753.333 841.667 760.795 841.667 770Z" fill="white"/>
<path d="M83.3333 853.333C83.3333 807.31 46.0237 770 1.90735e-06 770C-46.0237 770 -83.3333 807.31 -83.3333 853.333V936.667H83.3333V853.333Z" fill="#5E3215"/>
<path d="M66.6667 853.333C66.6667 816.514 36.819 786.667 1.90735e-06 786.667C-36.819 786.667 -66.6667 816.514 -66.6667 853.333V936.667H66.6667V853.333Z" fill="#BA460E"/>
<path d="M50 853.333V936.667H-50V853.333C-50 825.719 -27.6142 803.333 1.90735e-06 803.333C27.6142 803.333 50 825.719 50 853.333Z" fill="#E07A11"/>
<path d="M33.3333 853.333V936.667H-33.3333V853.333C-33.3333 834.924 -18.4095 820 1.90735e-06 820C18.4095 820 33.3333 834.924 33.3333 853.333Z" fill="#F0D4A5"/>
<path d="M16.6667 853.333V936.667H-16.6667V853.333C-16.6667 844.129 -9.20474 836.667 1.90735e-06 836.667C9.20475 836.667 16.6667 844.129 16.6667 853.333Z" fill="white"/>
<path d="M233.333 853.333C233.333 807.31 196.024 770 150 770C103.976 770 66.6667 807.31 66.6667 853.333V936.667H233.333V853.333Z" fill="#5E3215"/>
<path d="M216.667 853.333C216.667 816.514 186.819 786.667 150 786.667C113.181 786.667 83.3333 816.514 83.3333 853.333V936.667H216.667V853.333Z" fill="#BA460E"/>
<path d="M200 853.333V936.667H100V853.333C100 825.719 122.386 803.333 150 803.333C177.614 803.333 200 825.719 200 853.333Z" fill="#E07A11"/>
<path d="M183.333 853.333V936.667H116.667V853.333C116.667 834.924 131.591 820 150 820C168.409 820 183.333 834.924 183.333 853.333Z" fill="#F0D4A5"/>
<path d="M166.667 853.333V936.667H133.333V853.333C133.333 844.129 140.795 836.667 150 836.667C159.205 836.667 166.667 844.129 166.667 853.333Z" fill="white"/>
<path d="M383.333 853.333C383.333 807.31 346.024 770 300 770C253.976 770 216.667 807.31 216.667 853.333V936.667H383.333V853.333Z" fill="#5E3215"/>
<path d="M366.667 853.333C366.667 816.514 336.819 786.667 300 786.667C263.181 786.667 233.333 816.514 233.333 853.333V936.667H366.667V853.333Z" fill="#BA460E"/>
<path d="M350 853.333V936.667H250V853.333C250 825.719 272.386 803.333 300 803.333C327.614 803.333 350 825.719 350 853.333Z" fill="#E07A11"/>
<path d="M333.333 853.333V936.667H266.667V853.333C266.667 834.924 281.591 820 300 820C318.409 820 333.333 834.924 333.333 853.333Z" fill="#F0D4A5"/>
<path d="M316.667 853.333V936.667H283.333V853.333C283.333 844.129 290.795 836.667 300 836.667C309.205 836.667 316.667 844.129 316.667 853.333Z" fill="white"/>
<path d="M533.333 853.333C533.333 807.31 496.024 770 450 770C403.976 770 366.667 807.31 366.667 853.333V936.667H533.333V853.333Z" fill="#5E3215"/>
<path d="M516.667 853.333C516.667 816.514 486.819 786.667 450 786.667C413.181 786.667 383.333 816.514 383.333 853.333V936.667H516.667V853.333Z" fill="#BA460E"/>
<path d="M500 853.333V936.667H400V853.333C400 825.719 422.386 803.333 450 803.333C477.614 803.333 500 825.719 500 853.333Z" fill="#E07A11"/>
<path d="M483.333 853.333V936.667H416.667V853.333C416.667 834.924 431.59 820 450 820C468.409 820 483.333 834.924 483.333 853.333Z" fill="#F0D4A5"/>
<path d="M466.667 853.333V936.667H433.333V853.333C433.333 844.129 440.795 836.667 450 836.667C459.205 836.667 466.667 844.129 466.667 853.333Z" fill="white"/>
<path d="M683.333 853.333C683.333 807.31 646.024 770 600 770C553.976 770 516.667 807.31 516.667 853.333V936.667H683.333V853.333Z" fill="#5E3215"/>
<path d="M666.667 853.333C666.667 816.514 636.819 786.667 600 786.667C563.181 786.667 533.333 816.514 533.333 853.333V936.667H666.667V853.333Z" fill="#BA460E"/>
<path d="M650 853.333V936.667H550V853.333C550 825.719 572.386 803.333 600 803.333C627.614 803.333 650 825.719 650 853.333Z" fill="#E07A11"/>
<path d="M633.333 853.333V936.667H566.667V853.333C566.667 834.924 581.59 820 600 820C618.409 820 633.333 834.924 633.333 853.333Z" fill="#F0D4A5"/>
<path d="M616.667 853.333V936.667H583.333V853.333C583.333 844.129 590.795 836.667 600 836.667C609.205 836.667 616.667 844.129 616.667 853.333Z" fill="white"/>
<path d="M833.333 853.333C833.333 807.31 796.024 770 750 770C703.976 770 666.667 807.31 666.667 853.333V936.667H833.333V853.333Z" fill="#5E3215"/>
<path d="M816.667 853.333C816.667 816.514 786.819 786.667 750 786.667C713.181 786.667 683.333 816.514 683.333 853.333V936.667H816.667V853.333Z" fill="#BA460E"/>
<path d="M800 853.333V936.667H700V853.333C700 825.719 722.386 803.333 750 803.333C777.614 803.333 800 825.719 800 853.333Z" fill="#E07A11"/>
<path d="M783.333 853.333V936.667H716.667V853.333C716.667 834.924 731.59 820 750 820C768.409 820 783.333 834.924 783.333 853.333Z" fill="#F0D4A5"/>
<path d="M766.667 853.333V936.667H733.333V853.333C733.333 844.129 740.795 836.667 750 836.667C759.205 836.667 766.667 844.129 766.667 853.333Z" fill="white"/>
<path d="M983.333 853.333C983.333 807.31 946.024 770 900 770C853.976 770 816.667 807.31 816.667 853.333V936.667H983.333V853.333Z" fill="#5E3215"/>
<path d="M966.667 853.333C966.667 816.514 936.819 786.667 900 786.667C863.181 786.667 833.333 816.514 833.333 853.333V936.667H966.667V853.333Z" fill="#BA460E"/>
<path d="M950 853.333V936.667H850V853.333C850 825.719 872.386 803.333 900 803.333C927.614 803.333 950 825.719 950 853.333Z" fill="#E07A11"/>
<path d="M933.333 853.333V936.667H866.667V853.333C866.667 834.924 881.59 820 900 820C918.409 820 933.333 834.924 933.333 853.333Z" fill="#F0D4A5"/>
<path d="M916.667 853.333V936.667H883.333V853.333C883.333 844.129 890.795 836.667 900 836.667C909.205 836.667 916.667 844.129 916.667 853.333Z" fill="white"/>
</g>
<rect y="500" width="900" height="20" fill="#F5F5DC"/>
<rect width="900" height="500" fill="#A45A52"/>
</svg>
