<svg width="900" height="1154" viewBox="0 0 900 1154" fill="none" xmlns="http://www.w3.org/2000/svg">
<rect width="900" height="1154" fill="#1E1E1E"/>
<mask id="mask0_0_1" style="mask-type:alpha" maskUnits="userSpaceOnUse" x="0" y="820" width="900" height="334">
<rect y="820" width="900" height="333.333" fill="#A45A52"/>
</mask>
<g mask="url(#mask0_0_1)">
<path d="M83.3333 820C83.3333 773.976 46.0237 736.667 1.90735e-06 736.667C-46.0237 736.667 -83.3333 773.976 -83.3333 820V903.333H83.3333V820Z" fill="#5E3215"/>
<path d="M66.6667 820C66.6667 783.181 36.819 753.333 1.90735e-06 753.333C-36.819 753.333 -66.6667 783.181 -66.6667 820V903.333H66.6667V820Z" fill="#BA460E"/>
<path d="M50 820V903.333H-50V820C-50 792.386 -27.6142 770 1.90735e-06 770C27.6142 770 50 792.386 50 820Z" fill="#E07A11"/>
<path d="M33.3333 820V903.333H-33.3333V820C-33.3333 801.59 -18.4095 786.667 1.90735e-06 786.667C18.4095 786.667 33.3333 801.59 33.3333 820Z" fill="#F0D4A5"/>
<path d="M16.6667 820V903.333H-16.6667V820C-16.6667 810.795 -9.20474 803.333 1.90735e-06 803.333C9.20475 803.333 16.6667 810.795 16.6667 820Z" fill="white"/>
<path d="M233.333 820C233.333 773.976 196.024 736.667 150 736.667C103.976 736.667 66.6667 773.976 66.6667 820V903.333H233.333V820Z" fill="#5E3215"/>
<path d="M216.667 820C216.667 783.181 186.819 753.333 150 753.333C113.181 753.333 83.3333 783.181 83.3333 820V903.333H216.667V820Z" fill="#BA460E"/>
<path d="M200 820V903.333H100V820C100 792.386 122.386 770 150 770C177.614 770 200 792.386 200 820Z" fill="#E07A11"/>
<path d="M183.333 820V903.333H116.667V820C116.667 801.59 131.591 786.667 150 786.667C168.409 786.667 183.333 801.59 183.333 820Z" fill="#F0D4A5"/>
<path d="M166.667 820V903.333H133.333V820C133.333 810.795 140.795 803.333 150 803.333C159.205 803.333 166.667 810.795 166.667 820Z" fill="white"/>
<path d="M383.333 820C383.333 773.976 346.024 736.667 300 736.667C253.976 736.667 216.667 773.976 216.667 820V903.333H383.333V820Z" fill="#5E3215"/>
<path d="M366.667 820C366.667 783.181 336.819 753.333 300 753.333C263.181 753.333 233.333 783.181 233.333 820V903.333H366.667V820Z" fill="#BA460E"/>
<path d="M350 820V903.333H250V820C250 792.386 272.386 770 300 770C327.614 770 350 792.386 350 820Z" fill="#E07A11"/>
<path d="M333.333 820V903.333H266.667V820C266.667 801.59 281.591 786.667 300 786.667C318.409 786.667 333.333 801.59 333.333 820Z" fill="#F0D4A5"/>
<path d="M316.667 820V903.333H283.333V820C283.333 810.795 290.795 803.333 300 803.333C309.205 803.333 316.667 810.795 316.667 820Z" fill="white"/>
<path d="M533.333 820C533.333 773.976 496.024 736.667 450 736.667C403.976 736.667 366.667 773.976 366.667 820V903.333H533.333V820Z" fill="#5E3215"/>
<path d="M516.667 820C516.667 783.181 486.819 753.333 450 753.333C413.181 753.333 383.333 783.181 383.333 820V903.333H516.667V820Z" fill="#BA460E"/>
<path d="M500 820V903.333H400V820C400 792.386 422.386 770 450 770C477.614 770 500 792.386 500 820Z" fill="#E07A11"/>
<path d="M483.333 820V903.333H416.667V820C416.667 801.59 431.59 786.667 450 786.667C468.409 786.667 483.333 801.59 483.333 820Z" fill="#F0D4A5"/>
<path d="M466.667 820V903.333H433.333V820C433.333 810.795 440.795 803.333 450 803.333C459.205 803.333 466.667 810.795 466.667 820Z" fill="white"/>
<path d="M683.333 820C683.333 773.976 646.024 736.667 600 736.667C553.976 736.667 516.667 773.976 516.667 820V903.333H683.333V820Z" fill="#5E3215"/>
<path d="M666.667 820C666.667 783.181 636.819 753.333 600 753.333C563.181 753.333 533.333 783.181 533.333 820V903.333H666.667V820Z" fill="#BA460E"/>
<path d="M650 820V903.333H550V820C550 792.386 572.386 770 600 770C627.614 770 650 792.386 650 820Z" fill="#E07A11"/>
<path d="M633.333 820V903.333H566.667V820C566.667 801.59 581.59 786.667 600 786.667C618.409 786.667 633.333 801.59 633.333 820Z" fill="#F0D4A5"/>
<path d="M616.667 820V903.333H583.333V820C583.333 810.795 590.795 803.333 600 803.333C609.205 803.333 616.667 810.795 616.667 820Z" fill="white"/>
<path d="M833.333 820C833.333 773.976 796.024 736.667 750 736.667C703.976 736.667 666.667 773.976 666.667 820V903.333H833.333V820Z" fill="#5E3215"/>
<path d="M816.667 820C816.667 783.181 786.819 753.333 750 753.333C713.181 753.333 683.333 783.181 683.333 820V903.333H816.667V820Z" fill="#BA460E"/>
<path d="M800 820V903.333H700V820C700 792.386 722.386 770 750 770C777.614 770 800 792.386 800 820Z" fill="#E07A11"/>
<path d="M783.333 820V903.333H716.667V820C716.667 801.59 731.59 786.667 750 786.667C768.409 786.667 783.333 801.59 783.333 820Z" fill="#F0D4A5"/>
<path d="M766.667 820V903.333H733.333V820C733.333 810.795 740.795 803.333 750 803.333C759.205 803.333 766.667 810.795 766.667 820Z" fill="white"/>
<path d="M983.333 820C983.333 773.976 946.024 736.667 900 736.667C853.976 736.667 816.667 773.976 816.667 820V903.333H983.333V820Z" fill="#5E3215"/>
<path d="M966.667 820C966.667 783.181 936.819 753.333 900 753.333C863.181 753.333 833.333 783.181 833.333 820V903.333H966.667V820Z" fill="#BA460E"/>
<path d="M950 820V903.333H850V820C850 792.386 872.386 770 900 770C927.614 770 950 792.386 950 820Z" fill="#E07A11"/>
<path d="M933.333 820V903.333H866.667V820C866.667 801.59 881.59 786.667 900 786.667C918.409 786.667 933.333 801.59 933.333 820Z" fill="#F0D4A5"/>
<path d="M916.667 820V903.333H883.333V820C883.333 810.795 890.795 803.333 900 803.333C909.205 803.333 916.667 810.795 916.667 820Z" fill="white"/>
<path d="M158.333 903.333C158.333 857.31 121.024 820 75 820C28.9763 820 -8.33333 857.31 -8.33333 903.333V986.667H158.333V903.333Z" fill="#5E3215"/>
<path d="M141.667 903.333C141.667 866.514 111.819 836.667 75 836.667C38.181 836.667 8.33333 866.514 8.33333 903.333V986.667H141.667V903.333Z" fill="#BA460E"/>
<path d="M125 903.333V986.667H25V903.333C25 875.719 47.3858 853.333 75 853.333C102.614 853.333 125 875.719 125 903.333Z" fill="#E07A11"/>
<path d="M108.333 903.333V986.667H41.6667V903.333C41.6667 884.924 56.5905 870 75 870C93.4095 870 108.333 884.924 108.333 903.333Z" fill="#F0D4A5"/>
<path d="M91.6667 903.333V986.667H58.3333V903.333C58.3333 894.129 65.7953 886.667 75 886.667C84.2048 886.667 91.6667 894.129 91.6667 903.333Z" fill="white"/>
<path d="M308.333 903.333C308.333 857.31 271.024 820 225 820C178.976 820 141.667 857.31 141.667 903.333V986.667H308.333V903.333Z" fill="#5E3215"/>
<path d="M291.667 903.333C291.667 866.514 261.819 836.667 225 836.667C188.181 836.667 158.333 866.514 158.333 903.333V986.667H291.667V903.333Z" fill="#BA460E"/>
<path d="M275 903.333V986.667H175V903.333C175 875.719 197.386 853.333 225 853.333C252.614 853.333 275 875.719 275 903.333Z" fill="#E07A11"/>
<path d="M258.333 903.333V986.667H191.667V903.333C191.667 884.924 206.591 870 225 870C243.409 870 258.333 884.924 258.333 903.333Z" fill="#F0D4A5"/>
<path d="M241.667 903.333V986.667H208.333V903.333C208.333 894.129 215.795 886.667 225 886.667C234.205 886.667 241.667 894.129 241.667 903.333Z" fill="white"/>
<path d="M458.333 903.333C458.333 857.31 421.024 820 375 820C328.976 820 291.667 857.31 291.667 903.333V986.667H458.333V903.333Z" fill="#5E3215"/>
<path d="M441.667 903.333C441.667 866.514 411.819 836.667 375 836.667C338.181 836.667 308.333 866.514 308.333 903.333V986.667H441.667V903.333Z" fill="#BA460E"/>
<path d="M425 903.333V986.667H325V903.333C325 875.719 347.386 853.333 375 853.333C402.614 853.333 425 875.719 425 903.333Z" fill="#E07A11"/>
<path d="M408.333 903.333V986.667H341.667V903.333C341.667 884.924 356.59 870 375 870C393.409 870 408.333 884.924 408.333 903.333Z" fill="#F0D4A5"/>
<path d="M391.667 903.333V986.667H358.333V903.333C358.333 894.129 365.795 886.667 375 886.667C384.205 886.667 391.667 894.129 391.667 903.333Z" fill="white"/>
<path d="M608.333 903.333C608.333 857.31 571.024 820 525 820C478.976 820 441.667 857.31 441.667 903.333V986.667H608.333V903.333Z" fill="#5E3215"/>
<path d="M591.667 903.333C591.667 866.514 561.819 836.667 525 836.667C488.181 836.667 458.333 866.514 458.333 903.333V986.667H591.667V903.333Z" fill="#BA460E"/>
<path d="M575 903.333V986.667H475V903.333C475 875.719 497.386 853.333 525 853.333C552.614 853.333 575 875.719 575 903.333Z" fill="#E07A11"/>
<path d="M558.333 903.333V986.667H491.667V903.333C491.667 884.924 506.59 870 525 870C543.409 870 558.333 884.924 558.333 903.333Z" fill="#F0D4A5"/>
<path d="M541.667 903.333V986.667H508.333V903.333C508.333 894.129 515.795 886.667 525 886.667C534.205 886.667 541.667 894.129 541.667 903.333Z" fill="white"/>
<path d="M758.333 903.333C758.333 857.31 721.024 820 675 820C628.976 820 591.667 857.31 591.667 903.333V986.667H758.333V903.333Z" fill="#5E3215"/>
<path d="M741.667 903.333C741.667 866.514 711.819 836.667 675 836.667C638.181 836.667 608.333 866.514 608.333 903.333V986.667H741.667V903.333Z" fill="#BA460E"/>
<path d="M725 903.333V986.667H625V903.333C625 875.719 647.386 853.333 675 853.333C702.614 853.333 725 875.719 725 903.333Z" fill="#E07A11"/>
<path d="M708.333 903.333V986.667H641.667V903.333C641.667 884.924 656.59 870 675 870C693.409 870 708.333 884.924 708.333 903.333Z" fill="#F0D4A5"/>
<path d="M691.667 903.333V986.667H658.333V903.333C658.333 894.129 665.795 886.667 675 886.667C684.205 886.667 691.667 894.129 691.667 903.333Z" fill="white"/>
<path d="M908.333 903.333C908.333 857.31 871.024 820 825 820C778.976 820 741.667 857.31 741.667 903.333V986.667H908.333V903.333Z" fill="#5E3215"/>
<path d="M891.667 903.333C891.667 866.514 861.819 836.667 825 836.667C788.181 836.667 758.333 866.514 758.333 903.333V986.667H891.667V903.333Z" fill="#BA460E"/>
<path d="M875 903.333V986.667H775V903.333C775 875.719 797.386 853.333 825 853.333C852.614 853.333 875 875.719 875 903.333Z" fill="#E07A11"/>
<path d="M858.333 903.333V986.667H791.667V903.333C791.667 884.924 806.59 870 825 870C843.409 870 858.333 884.924 858.333 903.333Z" fill="#F0D4A5"/>
<path d="M841.667 903.333V986.667H808.333V903.333C808.333 894.129 815.795 886.667 825 886.667C834.205 886.667 841.667 894.129 841.667 903.333Z" fill="white"/>
<path d="M83.3333 986.667C83.3333 940.643 46.0237 903.333 1.90735e-06 903.333C-46.0237 903.333 -83.3333 940.643 -83.3333 986.667V1070H83.3333V986.667Z" fill="#5E3215"/>
<path d="M66.6667 986.667C66.6667 949.848 36.819 920 1.90735e-06 920C-36.819 920 -66.6667 949.848 -66.6667 986.667V1070H66.6667V986.667Z" fill="#BA460E"/>
<path d="M50 986.667V1070H-50V986.667C-50 959.052 -27.6142 936.667 1.90735e-06 936.667C27.6142 936.667 50 959.052 50 986.667Z" fill="#E07A11"/>
<path d="M33.3333 986.667V1070H-33.3333V986.667C-33.3333 968.257 -18.4095 953.333 1.90735e-06 953.333C18.4095 953.333 33.3333 968.257 33.3333 986.667Z" fill="#F0D4A5"/>
<path d="M16.6667 986.667V1070H-16.6667V986.667C-16.6667 977.462 -9.20474 970 1.90735e-06 970C9.20475 970 16.6667 977.462 16.6667 986.667Z" fill="white"/>
<path d="M233.333 986.667C233.333 940.643 196.024 903.333 150 903.333C103.976 903.333 66.6667 940.643 66.6667 986.667V1070H233.333V986.667Z" fill="#5E3215"/>
<path d="M216.667 986.667C216.667 949.848 186.819 920 150 920C113.181 920 83.3333 949.848 83.3333 986.667V1070H216.667V986.667Z" fill="#BA460E"/>
<path d="M200 986.667V1070H100V986.667C100 959.052 122.386 936.667 150 936.667C177.614 936.667 200 959.052 200 986.667Z" fill="#E07A11"/>
<path d="M183.333 986.667V1070H116.667V986.667C116.667 968.257 131.591 953.333 150 953.333C168.409 953.333 183.333 968.257 183.333 986.667Z" fill="#F0D4A5"/>
<path d="M166.667 986.667V1070H133.333V986.667C133.333 977.462 140.795 970 150 970C159.205 970 166.667 977.462 166.667 986.667Z" fill="white"/>
<path d="M383.333 986.667C383.333 940.643 346.024 903.333 300 903.333C253.976 903.333 216.667 940.643 216.667 986.667V1070H383.333V986.667Z" fill="#5E3215"/>
<path d="M366.667 986.667C366.667 949.848 336.819 920 300 920C263.181 920 233.333 949.848 233.333 986.667V1070H366.667V986.667Z" fill="#BA460E"/>
<path d="M350 986.667V1070H250V986.667C250 959.052 272.386 936.667 300 936.667C327.614 936.667 350 959.052 350 986.667Z" fill="#E07A11"/>
<path d="M333.333 986.667V1070H266.667V986.667C266.667 968.257 281.591 953.333 300 953.333C318.409 953.333 333.333 968.257 333.333 986.667Z" fill="#F0D4A5"/>
<path d="M316.667 986.667V1070H283.333V986.667C283.333 977.462 290.795 970 300 970C309.205 970 316.667 977.462 316.667 986.667Z" fill="white"/>
<path d="M533.333 986.667C533.333 940.643 496.024 903.333 450 903.333C403.976 903.333 366.667 940.643 366.667 986.667V1070H533.333V986.667Z" fill="#5E3215"/>
<path d="M516.667 986.667C516.667 949.848 486.819 920 450 920C413.181 920 383.333 949.848 383.333 986.667V1070H516.667V986.667Z" fill="#BA460E"/>
<path d="M500 986.667V1070H400V986.667C400 959.052 422.386 936.667 450 936.667C477.614 936.667 500 959.052 500 986.667Z" fill="#E07A11"/>
<path d="M483.333 986.667V1070H416.667V986.667C416.667 968.257 431.59 953.333 450 953.333C468.409 953.333 483.333 968.257 483.333 986.667Z" fill="#F0D4A5"/>
<path d="M466.667 986.667V1070H433.333V986.667C433.333 977.462 440.795 970 450 970C459.205 970 466.667 977.462 466.667 986.667Z" fill="white"/>
<path d="M683.333 986.667C683.333 940.643 646.024 903.333 600 903.333C553.976 903.333 516.667 940.643 516.667 986.667V1070H683.333V986.667Z" fill="#5E3215"/>
<path d="M666.667 986.667C666.667 949.848 636.819 920 600 920C563.181 920 533.333 949.848 533.333 986.667V1070H666.667V986.667Z" fill="#BA460E"/>
<path d="M650 986.667V1070H550V986.667C550 959.052 572.386 936.667 600 936.667C627.614 936.667 650 959.052 650 986.667Z" fill="#E07A11"/>
<path d="M633.333 986.667V1070H566.667V986.667C566.667 968.257 581.59 953.333 600 953.333C618.409 953.333 633.333 968.257 633.333 986.667Z" fill="#F0D4A5"/>
<path d="M616.667 986.667V1070H583.333V986.667C583.333 977.462 590.795 970 600 970C609.205 970 616.667 977.462 616.667 986.667Z" fill="white"/>
<path d="M833.333 986.667C833.333 940.643 796.024 903.333 750 903.333C703.976 903.333 666.667 940.643 666.667 986.667V1070H833.333V986.667Z" fill="#5E3215"/>
<path d="M816.667 986.667C816.667 949.848 786.819 920 750 920C713.181 920 683.333 949.848 683.333 986.667V1070H816.667V986.667Z" fill="#BA460E"/>
<path d="M800 986.667V1070H700V986.667C700 959.052 722.386 936.667 750 936.667C777.614 936.667 800 959.052 800 986.667Z" fill="#E07A11"/>
<path d="M783.333 986.667V1070H716.667V986.667C716.667 968.257 731.59 953.333 750 953.333C768.409 953.333 783.333 968.257 783.333 986.667Z" fill="#F0D4A5"/>
<path d="M766.667 986.667V1070H733.333V986.667C733.333 977.462 740.795 970 750 970C759.205 970 766.667 977.462 766.667 986.667Z" fill="white"/>
<path d="M983.333 986.667C983.333 940.643 946.024 903.333 900 903.333C853.976 903.333 816.667 940.643 816.667 986.667V1070H983.333V986.667Z" fill="#5E3215"/>
<path d="M966.667 986.667C966.667 949.848 936.819 920 900 920C863.181 920 833.333 949.848 833.333 986.667V1070H966.667V986.667Z" fill="#BA460E"/>
<path d="M950 986.667V1070H850V986.667C850 959.052 872.386 936.667 900 936.667C927.614 936.667 950 959.052 950 986.667Z" fill="#E07A11"/>
<path d="M933.333 986.667V1070H866.667V986.667C866.667 968.257 881.59 953.333 900 953.333C918.409 953.333 933.333 968.257 933.333 986.667Z" fill="#F0D4A5"/>
<path d="M916.667 986.667V1070H883.333V986.667C883.333 977.462 890.795 970 900 970C909.205 970 916.667 977.462 916.667 986.667Z" fill="white"/>
<path d="M158.333 1070C158.333 1023.98 121.024 986.667 75 986.667C28.9763 986.667 -8.33333 1023.98 -8.33333 1070V1153.33H158.333V1070Z" fill="#5E3215"/>
<path d="M141.667 1070C141.667 1033.18 111.819 1003.33 75 1003.33C38.181 1003.33 8.33333 1033.18 8.33333 1070V1153.33H141.667V1070Z" fill="#BA460E"/>
<path d="M125 1070V1153.33H25V1070C25 1042.39 47.3858 1020 75 1020C102.614 1020 125 1042.39 125 1070Z" fill="#E07A11"/>
<path d="M108.333 1070V1153.33H41.6667V1070C41.6667 1051.59 56.5905 1036.67 75 1036.67C93.4095 1036.67 108.333 1051.59 108.333 1070Z" fill="#F0D4A5"/>
<path d="M91.6667 1070V1153.33H58.3333V1070C58.3333 1060.8 65.7953 1053.33 75 1053.33C84.2048 1053.33 91.6667 1060.8 91.6667 1070Z" fill="white"/>
<path d="M308.333 1070C308.333 1023.98 271.024 986.667 225 986.667C178.976 986.667 141.667 1023.98 141.667 1070V1153.33H308.333V1070Z" fill="#5E3215"/>
<path d="M291.667 1070C291.667 1033.18 261.819 1003.33 225 1003.33C188.181 1003.33 158.333 1033.18 158.333 1070V1153.33H291.667V1070Z" fill="#BA460E"/>
<path d="M275 1070V1153.33H175V1070C175 1042.39 197.386 1020 225 1020C252.614 1020 275 1042.39 275 1070Z" fill="#E07A11"/>
<path d="M258.333 1070V1153.33H191.667V1070C191.667 1051.59 206.591 1036.67 225 1036.67C243.409 1036.67 258.333 1051.59 258.333 1070Z" fill="#F0D4A5"/>
<path d="M241.667 1070V1153.33H208.333V1070C208.333 1060.8 215.795 1053.33 225 1053.33C234.205 1053.33 241.667 1060.8 241.667 1070Z" fill="white"/>
<path d="M458.333 1070C458.333 1023.98 421.024 986.667 375 986.667C328.976 986.667 291.667 1023.98 291.667 1070V1153.33H458.333V1070Z" fill="#5E3215"/>
<path d="M441.667 1070C441.667 1033.18 411.819 1003.33 375 1003.33C338.181 1003.33 308.333 1033.18 308.333 1070V1153.33H441.667V1070Z" fill="#BA460E"/>
<path d="M425 1070V1153.33H325V1070C325 1042.39 347.386 1020 375 1020C402.614 1020 425 1042.39 425 1070Z" fill="#E07A11"/>
<path d="M408.333 1070V1153.33H341.667V1070C341.667 1051.59 356.59 1036.67 375 1036.67C393.409 1036.67 408.333 1051.59 408.333 1070Z" fill="#F0D4A5"/>
<path d="M391.667 1070V1153.33H358.333V1070C358.333 1060.8 365.795 1053.33 375 1053.33C384.205 1053.33 391.667 1060.8 391.667 1070Z" fill="white"/>
<path d="M608.333 1070C608.333 1023.98 571.024 986.667 525 986.667C478.976 986.667 441.667 1023.98 441.667 1070V1153.33H608.333V1070Z" fill="#5E3215"/>
<path d="M591.667 1070C591.667 1033.18 561.819 1003.33 525 1003.33C488.181 1003.33 458.333 1033.18 458.333 1070V1153.33H591.667V1070Z" fill="#BA460E"/>
<path d="M575 1070V1153.33H475V1070C475 1042.39 497.386 1020 525 1020C552.614 1020 575 1042.39 575 1070Z" fill="#E07A11"/>
<path d="M558.333 1070V1153.33H491.667V1070C491.667 1051.59 506.59 1036.67 525 1036.67C543.409 1036.67 558.333 1051.59 558.333 1070Z" fill="#F0D4A5"/>
<path d="M541.667 1070V1153.33H508.333V1070C508.333 1060.8 515.795 1053.33 525 1053.33C534.205 1053.33 541.667 1060.8 541.667 1070Z" fill="white"/>
<path d="M758.333 1070C758.333 1023.98 721.024 986.667 675 986.667C628.976 986.667 591.667 1023.98 591.667 1070V1153.33H758.333V1070Z" fill="#5E3215"/>
<path d="M741.667 1070C741.667 1033.18 711.819 1003.33 675 1003.33C638.181 1003.33 608.333 1033.18 608.333 1070V1153.33H741.667V1070Z" fill="#BA460E"/>
<path d="M725 1070V1153.33H625V1070C625 1042.39 647.386 1020 675 1020C702.614 1020 725 1042.39 725 1070Z" fill="#E07A11"/>
<path d="M708.333 1070V1153.33H641.667V1070C641.667 1051.59 656.59 1036.67 675 1036.67C693.409 1036.67 708.333 1051.59 708.333 1070Z" fill="#F0D4A5"/>
<path d="M691.667 1070V1153.33H658.333V1070C658.333 1060.8 665.795 1053.33 675 1053.33C684.205 1053.33 691.667 1060.8 691.667 1070Z" fill="white"/>
<path d="M908.333 1070C908.333 1023.98 871.024 986.667 825 986.667C778.976 986.667 741.667 1023.98 741.667 1070V1153.33H908.333V1070Z" fill="#5E3215"/>
<path d="M891.667 1070C891.667 1033.18 861.819 1003.33 825 1003.33C788.181 1003.33 758.333 1033.18 758.333 1070V1153.33H891.667V1070Z" fill="#BA460E"/>
<path d="M875 1070V1153.33H775V1070C775 1042.39 797.386 1020 825 1020C852.614 1020 875 1042.39 875 1070Z" fill="#E07A11"/>
<path d="M858.333 1070V1153.33H791.667V1070C791.667 1051.59 806.59 1036.67 825 1036.67C843.409 1036.67 858.333 1051.59 858.333 1070Z" fill="#F0D4A5"/>
<path d="M841.667 1070V1153.33H808.333V1070C808.333 1060.8 815.795 1053.33 825 1053.33C834.205 1053.33 841.667 1060.8 841.667 1070Z" fill="white"/>
<path d="M83.3333 1153.33C83.3333 1107.31 46.0237 1070 1.90735e-06 1070C-46.0237 1070 -83.3333 1107.31 -83.3333 1153.33V1236.67H83.3333V1153.33Z" fill="#5E3215"/>
<path d="M66.6667 1153.33C66.6667 1116.51 36.819 1086.67 1.90735e-06 1086.67C-36.819 1086.67 -66.6667 1116.51 -66.6667 1153.33V1236.67H66.6667V1153.33Z" fill="#BA460E"/>
<path d="M50 1153.33V1236.67H-50V1153.33C-50 1125.72 -27.6142 1103.33 1.90735e-06 1103.33C27.6142 1103.33 50 1125.72 50 1153.33Z" fill="#E07A11"/>
<path d="M33.3333 1153.33V1236.67H-33.3333V1153.33C-33.3333 1134.92 -18.4095 1120 1.90735e-06 1120C18.4095 1120 33.3333 1134.92 33.3333 1153.33Z" fill="#F0D4A5"/>
<path d="M16.6667 1153.33V1236.67H-16.6667V1153.33C-16.6667 1144.13 -9.20474 1136.67 1.90735e-06 1136.67C9.20475 1136.67 16.6667 1144.13 16.6667 1153.33Z" fill="white"/>
<path d="M233.333 1153.33C233.333 1107.31 196.024 1070 150 1070C103.976 1070 66.6667 1107.31 66.6667 1153.33V1236.67H233.333V1153.33Z" fill="#5E3215"/>
<path d="M216.667 1153.33C216.667 1116.51 186.819 1086.67 150 1086.67C113.181 1086.67 83.3333 1116.51 83.3333 1153.33V1236.67H216.667V1153.33Z" fill="#BA460E"/>
<path d="M200 1153.33V1236.67H100V1153.33C100 1125.72 122.386 1103.33 150 1103.33C177.614 1103.33 200 1125.72 200 1153.33Z" fill="#E07A11"/>
<path d="M183.333 1153.33V1236.67H116.667V1153.33C116.667 1134.92 131.591 1120 150 1120C168.409 1120 183.333 1134.92 183.333 1153.33Z" fill="#F0D4A5"/>
<path d="M166.667 1153.33V1236.67H133.333V1153.33C133.333 1144.13 140.795 1136.67 150 1136.67C159.205 1136.67 166.667 1144.13 166.667 1153.33Z" fill="white"/>
<path d="M383.333 1153.33C383.333 1107.31 346.024 1070 300 1070C253.976 1070 216.667 1107.31 216.667 1153.33V1236.67H383.333V1153.33Z" fill="#5E3215"/>
<path d="M366.667 1153.33C366.667 1116.51 336.819 1086.67 300 1086.67C263.181 1086.67 233.333 1116.51 233.333 1153.33V1236.67H366.667V1153.33Z" fill="#BA460E"/>
<path d="M350 1153.33V1236.67H250V1153.33C250 1125.72 272.386 1103.33 300 1103.33C327.614 1103.33 350 1125.72 350 1153.33Z" fill="#E07A11"/>
<path d="M333.333 1153.33V1236.67H266.667V1153.33C266.667 1134.92 281.591 1120 300 1120C318.409 1120 333.333 1134.92 333.333 1153.33Z" fill="#F0D4A5"/>
<path d="M316.667 1153.33V1236.67H283.333V1153.33C283.333 1144.13 290.795 1136.67 300 1136.67C309.205 1136.67 316.667 1144.13 316.667 1153.33Z" fill="white"/>
<path d="M533.333 1153.33C533.333 1107.31 496.024 1070 450 1070C403.976 1070 366.667 1107.31 366.667 1153.33V1236.67H533.333V1153.33Z" fill="#5E3215"/>
<path d="M516.667 1153.33C516.667 1116.51 486.819 1086.67 450 1086.67C413.181 1086.67 383.333 1116.51 383.333 1153.33V1236.67H516.667V1153.33Z" fill="#BA460E"/>
<path d="M500 1153.33V1236.67H400V1153.33C400 1125.72 422.386 1103.33 450 1103.33C477.614 1103.33 500 1125.72 500 1153.33Z" fill="#E07A11"/>
<path d="M483.333 1153.33V1236.67H416.667V1153.33C416.667 1134.92 431.59 1120 450 1120C468.409 1120 483.333 1134.92 483.333 1153.33Z" fill="#F0D4A5"/>
<path d="M466.667 1153.33V1236.67H433.333V1153.33C433.333 1144.13 440.795 1136.67 450 1136.67C459.205 1136.67 466.667 1144.13 466.667 1153.33Z" fill="white"/>
<path d="M683.333 1153.33C683.333 1107.31 646.024 1070 600 1070C553.976 1070 516.667 1107.31 516.667 1153.33V1236.67H683.333V1153.33Z" fill="#5E3215"/>
<path d="M666.667 1153.33C666.667 1116.51 636.819 1086.67 600 1086.67C563.181 1086.67 533.333 1116.51 533.333 1153.33V1236.67H666.667V1153.33Z" fill="#BA460E"/>
<path d="M650 1153.33V1236.67H550V1153.33C550 1125.72 572.386 1103.33 600 1103.33C627.614 1103.33 650 1125.72 650 1153.33Z" fill="#E07A11"/>
<path d="M633.333 1153.33V1236.67H566.667V1153.33C566.667 1134.92 581.59 1120 600 1120C618.409 1120 633.333 1134.92 633.333 1153.33Z" fill="#F0D4A5"/>
<path d="M616.667 1153.33V1236.67H583.333V1153.33C583.333 1144.13 590.795 1136.67 600 1136.67C609.205 1136.67 616.667 1144.13 616.667 1153.33Z" fill="white"/>
<path d="M833.333 1153.33C833.333 1107.31 796.024 1070 750 1070C703.976 1070 666.667 1107.31 666.667 1153.33V1236.67H833.333V1153.33Z" fill="#5E3215"/>
<path d="M816.667 1153.33C816.667 1116.51 786.819 1086.67 750 1086.67C713.181 1086.67 683.333 1116.51 683.333 1153.33V1236.67H816.667V1153.33Z" fill="#BA460E"/>
<path d="M800 1153.33V1236.67H700V1153.33C700 1125.72 722.386 1103.33 750 1103.33C777.614 1103.33 800 1125.72 800 1153.33Z" fill="#E07A11"/>
<path d="M783.333 1153.33V1236.67H716.667V1153.33C716.667 1134.92 731.59 1120 750 1120C768.409 1120 783.333 1134.92 783.333 1153.33Z" fill="#F0D4A5"/>
<path d="M766.667 1153.33V1236.67H733.333V1153.33C733.333 1144.13 740.795 1136.67 750 1136.67C759.205 1136.67 766.667 1144.13 766.667 1153.33Z" fill="white"/>
<path d="M983.333 1153.33C983.333 1107.31 946.024 1070 900 1070C853.976 1070 816.667 1107.31 816.667 1153.33V1236.67H983.333V1153.33Z" fill="#5E3215"/>
<path d="M966.667 1153.33C966.667 1116.51 936.819 1086.67 900 1086.67C863.181 1086.67 833.333 1116.51 833.333 1153.33V1236.67H966.667V1153.33Z" fill="#BA460E"/>
<path d="M950 1153.33V1236.67H850V1153.33C850 1125.72 872.386 1103.33 900 1103.33C927.614 1103.33 950 1125.72 950 1153.33Z" fill="#E07A11"/>
<path d="M933.333 1153.33V1236.67H866.667V1153.33C866.667 1134.92 881.59 1120 900 1120C918.409 1120 933.333 1134.92 933.333 1153.33Z" fill="#F0D4A5"/>
<path d="M916.667 1153.33V1236.67H883.333V1153.33C883.333 1144.13 890.795 1136.67 900 1136.67C909.205 1136.67 916.667 1144.13 916.667 1153.33Z" fill="white"/>
</g>
<rect y="800" width="900" height="20" fill="#F5F5DC"/>
<rect width="900" height="800" fill="#A45A52"/>
</svg>
